<svg xmlns="http://www.w3.org/2000/svg" width="48" height="48" viewBox="0 0 48 48" fill="none">
<rect width="48" height="48" rx="24" fill="#2DA959"/>
<path d="M32.0585 15.8961C31.0107 14.8377 29.7627 13.9986 28.3872 13.4276C27.0117 12.8566 25.5363 12.5652 24.047 12.5704C17.807 12.5704 12.7213 17.6561 12.7213 23.8961C12.7213 25.8961 13.247 27.839 14.2299 29.5532L12.6299 35.4275L18.6299 33.8504C20.287 34.7532 22.1499 35.2332 24.047 35.2332C30.287 35.2332 35.3727 30.1475 35.3727 23.9075C35.3727 20.879 34.1956 18.0332 32.0585 15.8961ZM24.047 33.3132C22.3556 33.3132 20.6985 32.8561 19.247 31.999L18.9042 31.7932L15.3385 32.7304L16.287 29.2561L16.0585 28.9018C15.1187 27.4012 14.6198 25.6667 14.6185 23.8961C14.6185 18.7075 18.847 14.479 24.0356 14.479C26.5499 14.479 28.9156 15.4618 30.687 17.2447C31.5641 18.1178 32.2593 19.1563 32.732 20.3C33.2048 21.4437 33.4459 22.6699 33.4413 23.9075C33.4642 29.0961 29.2356 33.3132 24.047 33.3132ZM29.2127 26.2732C28.927 26.1361 27.5327 25.4504 27.2813 25.3475C27.0185 25.2561 26.8356 25.2104 26.6413 25.4847C26.447 25.7704 25.9099 26.4104 25.7499 26.5932C25.5899 26.7875 25.4185 26.8104 25.1327 26.6618C24.847 26.5247 23.9327 26.2161 22.8585 25.2561C22.0127 24.5018 21.4527 23.5761 21.2813 23.2904C21.1213 23.0047 21.2585 22.8561 21.407 22.7075C21.5327 22.5818 21.6927 22.3761 21.8299 22.2161C21.967 22.0561 22.0242 21.9304 22.1156 21.7475C22.207 21.5532 22.1613 21.3932 22.0927 21.2561C22.0242 21.119 21.4527 19.7247 21.2242 19.1532C20.9956 18.6047 20.7556 18.6732 20.5842 18.6618H20.0356C19.8413 18.6618 19.5442 18.7304 19.2813 19.0161C19.0299 19.3018 18.2985 19.9875 18.2985 21.3818C18.2985 22.7761 19.3156 24.1247 19.4527 24.3075C19.5899 24.5018 21.4527 27.359 24.287 28.5818C24.9613 28.879 25.487 29.0504 25.8985 29.1761C26.5727 29.3932 27.1899 29.3589 27.6813 29.2904C28.2299 29.2104 29.3613 28.6047 29.5899 27.9418C29.8299 27.279 29.8299 26.719 29.7499 26.5932C29.6699 26.4675 29.4985 26.4104 29.2127 26.2732Z" fill="white"/>
</svg>