<svg width="25" height="25" viewBox="0 0 25 25" fill="none" xmlns="http://www.w3.org/2000/svg">
<path fill-rule="evenodd" clip-rule="evenodd" d="M7.90902 14.746L6.37402 7.5H19C19.651 7.5 20.128 8.111 19.97 8.743L18.622 14.135C18.417 14.954 17.721 15.556 16.881 15.64L10.065 16.322C9.04902 16.423 8.12002 15.744 7.90902 14.746Z" stroke="white" stroke-width="1.5" stroke-linecap="round" stroke-linejoin="round"/>
<path d="M6.374 7.5L5.724 4.5H4" stroke="white" stroke-width="1.5" stroke-linecap="round" stroke-linejoin="round"/>
<path d="M17.609 19.7671C17.407 19.7671 17.243 19.9311 17.245 20.1331C17.245 20.3351 17.409 20.4991 17.611 20.4991C17.813 20.4991 17.977 20.3351 17.977 20.1331C17.976 19.9311 17.812 19.7671 17.609 19.7671" stroke="white" stroke-width="1.5" stroke-linecap="round" stroke-linejoin="round"/>
<path d="M9.197 19.767C8.995 19.767 8.831 19.931 8.833 20.133C8.831 20.336 8.996 20.5 9.198 20.5C9.4 20.5 9.564 20.336 9.564 20.134C9.564 19.931 9.4 19.767 9.197 19.767" stroke="white" stroke-width="1.5" stroke-linecap="round" stroke-linejoin="round"/>
</svg>
