<svg width="30" height="31" viewBox="0 0 30 31" fill="none" xmlns="http://www.w3.org/2000/svg">
<path fill-rule="evenodd" clip-rule="evenodd" d="M9.26128 18.3075L7.34253 9.25H23.125C23.9388 9.25 24.535 10.0138 24.3375 10.8038L22.6525 17.5438C22.3963 18.5675 21.5263 19.32 20.4763 19.425L11.9563 20.2775C10.6863 20.4038 9.52503 19.555 9.26128 18.3075Z" stroke="#7B7671" stroke-width="1.48" stroke-linecap="round" stroke-linejoin="round"/>
<path d="M7.3425 9.25L6.53 5.5H4.375" stroke="#7B7671" stroke-width="1.48" stroke-linecap="round" stroke-linejoin="round"/>
<path d="M21.3862 24.5837C21.1337 24.5837 20.9287 24.7887 20.9312 25.0412C20.9312 25.2937 21.1362 25.4987 21.3887 25.4987C21.6412 25.4987 21.8462 25.2937 21.8462 25.0412C21.8449 24.7887 21.6399 24.5837 21.3862 24.5837" stroke="#7B7671" stroke-width="1.48" stroke-linecap="round" stroke-linejoin="round"/>
<path d="M10.8712 24.5837C10.6187 24.5837 10.4137 24.7887 10.4162 25.0412C10.4137 25.295 10.6199 25.5 10.8724 25.5C11.1249 25.5 11.3299 25.295 11.3299 25.0425C11.3299 24.7887 11.1249 24.5837 10.8712 24.5837" stroke="#7B7671" stroke-width="1.48" stroke-linecap="round" stroke-linejoin="round"/>
</svg>
