<svg width="40" height="40" viewBox="0 0 40 40" fill="none" xmlns="http://www.w3.org/2000/svg">
<g clip-path="url(#clip0_418_23206)">
<path d="M40 20C40 8.95431 31.0457 0 20 0C8.95431 0 0 8.95431 0 20C0 31.0457 8.95431 40 20 40C31.0457 40 40 31.0457 40 20Z" fill="#2D2A26"/>
<path fill-rule="evenodd" clip-rule="evenodd" d="M11.4287 15.7143C11.4287 16.5033 12.0683 17.1429 12.8573 17.1429H27.143C27.932 17.1429 28.5716 16.5033 28.5716 15.7143C28.5716 14.9253 27.932 14.2858 27.143 14.2858H12.8573C12.0683 14.2858 11.4287 14.9253 11.4287 15.7143ZM11.4287 24.2858C11.4287 25.0748 12.0683 25.7143 12.8573 25.7143H27.143C27.932 25.7143 28.5716 25.0748 28.5716 24.2858C28.5716 23.4968 27.932 22.8572 27.143 22.8572H12.8573C12.0683 22.8572 11.4287 23.4968 11.4287 24.2858Z" fill="white"/>
</g>
<defs>
<clipPath id="clip0_418_23206">
<rect width="40" height="40" fill="white"/>
</clipPath>
</defs>
</svg>
