<svg width="104" height="25" viewBox="0 0 104 25" fill="none" xmlns="http://www.w3.org/2000/svg">
<path d="M10.8938 7.68045C10.9401 7.68559 11.0463 7.69073 11.2092 7.6993V11.4639C10.9778 11.4382 10.7721 11.421 10.5903 11.4124C10.4103 11.4039 10.2629 11.4004 10.1515 11.4004C8.67377 11.4004 7.68119 11.8822 7.17377 12.8439C6.89091 13.3856 6.74862 14.2187 6.74862 15.345V22.0616H3.04919V8.00788H6.55491V10.4576C7.12234 9.52159 7.61605 8.88045 8.03777 8.53588C8.72519 7.95988 9.61834 7.67188 10.7189 7.67188C10.7875 7.67188 10.8458 7.67359 10.8921 7.67873L10.8938 7.68045Z" fill="white"/>
<path d="M20.7761 8.29403C21.7567 8.73289 22.5658 9.42546 23.2036 10.3735C23.7796 11.2083 24.1516 12.1769 24.323 13.2792C24.4224 13.9237 24.4618 14.8546 24.4447 16.0683H14.2104C14.267 17.4775 14.7573 18.4666 15.6796 19.0323C16.2401 19.3855 16.9156 19.5603 17.7058 19.5603C18.5424 19.5603 19.223 19.346 19.7458 18.9157C20.0304 18.6843 20.2841 18.362 20.5018 17.9489H24.2527C24.1533 18.782 23.7007 19.6289 22.8916 20.4877C21.6333 21.854 19.871 22.538 17.6047 22.538C15.7344 22.538 14.0853 21.962 12.6556 20.8083C11.2258 19.6563 10.511 17.7809 10.511 15.182C10.511 12.7477 11.1556 10.8809 12.4464 9.58317C13.7373 8.28374 15.4121 7.63574 17.471 7.63574C18.6933 7.63574 19.7956 7.85517 20.7761 8.29403ZM15.2801 11.4672C14.7607 12.002 14.435 12.7272 14.3013 13.6409H20.6304C20.5636 12.6655 20.2378 11.9249 19.6516 11.4209C19.0653 10.9169 18.3401 10.6632 17.4727 10.6632C16.5298 10.6632 15.7996 10.9306 15.2801 11.4672Z" fill="white"/>
<path d="M27.4095 17.5735C27.4866 18.2267 27.6563 18.6913 27.9152 18.9655C28.3729 19.4558 29.2197 19.701 30.454 19.701C31.1792 19.701 31.7552 19.593 32.1838 19.3787C32.6106 19.1644 32.8249 18.8421 32.8249 18.4118C32.8249 17.9815 32.6535 17.6867 32.3089 17.4707C31.9643 17.2564 30.6838 16.8861 28.4655 16.3615C26.8695 15.9673 25.7432 15.4718 25.0917 14.8787C24.4386 14.2941 24.1112 13.4524 24.1112 12.3518C24.1112 11.0541 24.622 9.93983 25.642 9.00726C26.662 8.07468 28.0986 7.6084 29.95 7.6084C31.8015 7.6084 33.1386 7.95811 34.246 8.65926C35.3518 9.3604 35.9878 10.569 36.1523 12.2884H32.4786C32.4272 11.8153 32.2935 11.4415 32.0775 11.1673C31.6729 10.6684 30.982 10.4198 30.0083 10.4198C29.2078 10.4198 28.6369 10.545 28.2957 10.7935C27.9563 11.0421 27.7849 11.3353 27.7849 11.6695C27.7849 12.0913 27.9666 12.3964 28.3283 12.585C28.69 12.7821 29.9689 13.1215 32.1632 13.6033C33.6272 13.9461 34.7243 14.4673 35.4546 15.1633C36.1763 15.8678 36.538 16.749 36.538 17.8067C36.538 19.1987 36.0186 20.3353 34.9815 21.2164C33.9426 22.0975 32.3398 22.5381 30.1695 22.5381C27.9992 22.5381 26.3226 22.0718 25.2683 21.1393C24.2123 20.2067 23.686 19.0187 23.686 17.5753H27.4112L27.4095 17.5735Z" fill="white"/>
<path d="M41.1625 8.00781V16.4781C41.1625 17.277 41.2568 17.8787 41.4454 18.2832C41.7797 18.9964 42.4328 19.353 43.4082 19.353C44.6562 19.353 45.5117 18.8455 45.9728 17.8324C46.2128 17.2821 46.3328 16.557 46.3328 15.6535V8.00781H50.0579V22.0598H46.4871V20.0747C46.4528 20.1175 46.3671 20.2461 46.2299 20.4621C46.0928 20.6764 45.9299 20.8667 45.7414 21.0295C45.1671 21.5455 44.6117 21.8987 44.0768 22.0872C43.5402 22.2758 42.9128 22.3701 42.1928 22.3701C40.1202 22.3701 38.7231 21.6227 38.0031 20.1278C37.6002 19.3032 37.3997 18.0861 37.3997 16.4798V8.00781H41.1642H41.1625Z" fill="white"/>
<path d="M55.6365 22.0597H51.9628V3.05859H55.6365V22.0597Z" fill="white"/>
<path d="M56.0339 10.7546V8.13687H57.9934V4.21973H61.6294V8.13858H63.9111V10.7563H61.6294V18.1809C61.6294 18.7569 61.7014 19.1152 61.8488 19.2574C61.9945 19.3997 62.4419 19.47 63.1894 19.47C63.3008 19.47 63.4191 19.4683 63.5442 19.4632C63.6676 19.4597 63.7911 19.4529 63.9111 19.4443V22.1906L62.1711 22.2557C60.4345 22.3157 59.2499 22.0157 58.6139 21.354C58.2008 20.934 57.9951 20.2843 57.9951 19.4066V10.7563H56.0356L56.0339 10.7546Z" fill="white"/>
<path d="M70.091 13.5144C70.775 13.4287 71.2635 13.3207 71.5584 13.1921C72.0864 12.9693 72.3504 12.6213 72.3504 12.1481C72.3504 11.5721 72.1481 11.1744 71.7435 10.955C71.3372 10.7355 70.7441 10.6258 69.959 10.6258C69.0795 10.6258 68.4572 10.8401 68.0904 11.2704C67.8298 11.5893 67.655 12.0178 67.5675 12.5595H64.0224C64.0995 11.3304 64.4441 10.3207 65.0578 9.5304C66.0332 8.29269 67.7081 7.67383 70.0807 7.67383C71.6252 7.67383 72.9984 7.97897 74.1984 8.58926C75.3984 9.19954 75.9984 10.3515 75.9984 12.0435V18.4893C75.9984 18.9367 76.007 19.4767 76.0241 20.1127C76.0498 20.5944 76.1235 20.9201 76.2435 21.0915C76.3635 21.2647 76.5452 21.4053 76.7852 21.5167V22.0584H72.7875C72.6761 21.7755 72.599 21.5081 72.5561 21.2595C72.5132 21.011 72.479 20.7264 72.4532 20.4093C71.9441 20.9595 71.3561 21.4275 70.6892 21.815C69.8938 22.271 68.9955 22.499 67.9927 22.499C66.7121 22.499 65.6561 22.1355 64.823 21.4104C63.9881 20.6835 63.5715 19.655 63.5715 18.323C63.5715 16.595 64.2418 15.3453 65.5841 14.5721C66.3195 14.1521 67.403 13.8504 68.831 13.6704L70.091 13.5161V13.5144ZM72.3384 15.2287C72.1035 15.3744 71.8652 15.4927 71.6252 15.5835C71.3852 15.6744 71.0561 15.7567 70.6378 15.8355L69.8012 15.9898C69.0178 16.127 68.4555 16.295 68.1127 16.4921C67.535 16.8281 67.2452 17.3475 67.2452 18.0521C67.2452 18.6795 67.4218 19.1338 67.775 19.4115C68.1281 19.691 68.5584 19.8298 69.0658 19.8298C69.8681 19.8298 70.607 19.5984 71.2841 19.1338C71.9612 18.6693 72.3127 17.8241 72.3384 16.595V15.2287Z" fill="white"/>
<path d="M76.0242 10.7546V8.13687H77.9836V4.21973H81.6196V8.13858H83.9013V10.7563H81.6196V18.1809C81.6196 18.7569 81.6916 19.1152 81.839 19.2574C81.9847 19.3997 82.4322 19.47 83.1796 19.47C83.291 19.47 83.4093 19.4683 83.5345 19.4632C83.6579 19.4597 83.7813 19.4529 83.9013 19.4443V22.1906L82.1613 22.2557C80.4265 22.3157 79.2402 22.0157 78.6042 21.354C78.1927 20.934 77.9853 20.2843 77.9853 19.4066V10.7563H76.0259L76.0242 10.7546Z" fill="white"/>
<path d="M93.6737 8.29403C94.6543 8.73289 95.4634 9.42546 96.1029 10.3735C96.6789 11.2083 97.0509 12.1769 97.2223 13.2792C97.3217 13.9237 97.3611 14.8546 97.344 16.0683H87.1097C87.1663 17.4775 87.6566 18.4666 88.5789 19.0323C89.1394 19.3855 89.8149 19.5603 90.6034 19.5603C91.44 19.5603 92.1206 19.346 92.6434 18.9157C92.9297 18.6843 93.1817 18.362 93.3994 17.9489H97.1503C97.0509 18.782 96.5983 19.6289 95.7891 20.4877C94.5309 21.854 92.7686 22.538 90.5023 22.538C88.632 22.538 86.9829 21.962 85.5531 20.8083C84.1234 19.6563 83.4086 17.7809 83.4086 15.182C83.4086 12.7477 84.0531 10.8809 85.344 9.58317C86.6349 8.28374 88.3097 7.63574 90.3686 7.63574C91.5926 7.63574 92.6931 7.85517 93.6737 8.29403ZM88.1777 11.4672C87.6583 12.002 87.3326 12.7272 87.1989 13.6409H93.528C93.4611 12.6655 93.1354 11.9249 92.5491 11.4209C91.9646 10.9169 91.2377 10.6632 90.3703 10.6632C89.4274 10.6632 88.6954 10.9306 88.1777 11.4672Z" fill="white"/>
<path d="M102.075 18.2012H97.6346V22.2229H102.075V18.2012Z" fill="#FEC900"/>
</svg>
